<?xml version="1.0" encoding="UTF-8" standalone="no"?>
<svg
   viewBox="0 0 800 300"
   width="100%"
   height="300"
   version="1.1"
   id="svg43"
   xmlns="http://www.w3.org/2000/svg"
   xmlns:svg="http://www.w3.org/2000/svg">
  <defs
     id="defs7">
    <style
       id="style2">
      .box { fill: #f8f9fa; stroke: #111213; stroke-width: 2; rx: 8; }
      .text { font-family: 'IBM Plex Sans', sans-serif, Arial; font-size: 16px; fill: #111213; text-anchor: middle; font-weight: bold; }
      .label { font-family: 'IBM Plex Sans', sans-serif, Arial; font-size: 14px; fill: #555; text-anchor: middle; }
      .line { stroke: #111213; stroke-width: 2; fill: none; }
      .arrow { fill: #111213; }
      .dashed { stroke-dasharray: 6 6; }
    </style>
    <marker
       id="arrowhead"
       markerWidth="10"
       markerHeight="7"
       refX="9"
       refY="3.5"
       orient="auto">
      <polygon
         points="0 0, 10 3.5, 0 7"
         class="arrow"
         id="polygon4" />
    </marker>
  </defs>
  <!-- Nodes -->
  <rect
     x="50"
     y="100"
     width="150"
     height="60"
     class="box"
     id="rect9" />
  <g
     aria-label="FrontendMCP"
     id="text11"
     class="text"
     style="font-weight:bold;font-size:16px;font-family:'IBM Plex Sans', sans-serif, Arial;text-anchor:middle;fill:#111213">
    <path
       d="m 77.58412,135 h -2.432 v -11.168 h 7.408 v 2.16 h -4.976 v 2.288 h 4.24 v 2.144 h -4.24 z"
       id="path47" />
    <path
       d="m 86.272095,135 h -2.368 v -8.4 h 2.368 v 1.824 h 0.08 q 0.096,-0.464 0.352,-0.88 0.256,-0.416 0.688,-0.672 0.448,-0.272 1.104,-0.272 h 0.416 v 2.208 h -0.592 q -0.688,0 -1.152,0.128 -0.448,0.112 -0.672,0.384 -0.224,0.272 -0.224,0.768 z"
       id="path49" />
    <path
       d="m 93.696067,135.192 q -1.232,0 -2.112,-0.528 -0.88,-0.544 -1.36,-1.536 -0.464,-0.992 -0.464,-2.336 0,-1.36 0.464,-2.336 0.48,-0.976 1.36,-1.504 0.88,-0.544 2.112,-0.544 1.232,0 2.112,0.544 0.88,0.528 1.344,1.504 0.48,0.976 0.48,2.336 0,1.344 -0.48,2.336 -0.464,0.992 -1.344,1.536 -0.88,0.528 -2.112,0.528 z m 0,-1.872 q 0.704,0 1.088,-0.432 0.384,-0.448 0.384,-1.232 v -1.712 q 0,-0.8 -0.384,-1.232 -0.384,-0.432 -1.088,-0.432 -0.688,0 -1.088,0.432 -0.384,0.432 -0.384,1.232 v 1.712 q 0,0.784 0.384,1.232 0.4,0.432 1.088,0.432 z"
       id="path51" />
    <path
       d="m 101.68005,135 h -2.367996 v -8.4 h 2.367996 v 1.424 h 0.096 q 0.224,-0.656 0.784,-1.136 0.56,-0.48 1.552,-0.48 1.28,0 1.952,0.88 0.672,0.864 0.672,2.448 V 135 h -2.368 v -5.072 q 0,-0.8 -0.256,-1.2 -0.256,-0.4 -0.912,-0.4 -0.384,0 -0.736,0.144 -0.336,0.128 -0.56,0.4 -0.224,0.272 -0.224,0.688 z"
       id="path53" />
    <path
       d="m 113.20003,135 h -1.408 q -1.216,0 -1.856,-0.624 -0.64,-0.624 -0.64,-1.824 v -4.112 h -1.184 v -1.84 h 0.592 q 0.48,0 0.656,-0.224 0.176,-0.24 0.176,-0.672 v -1.376 h 2.128 v 2.272 h 1.664 v 1.84 h -1.664 v 4.72 h 1.536 z"
       id="path55" />
    <path
       d="m 118.416,135.192 q -1.28,0 -2.192,-0.528 -0.896,-0.544 -1.376,-1.536 -0.464,-0.992 -0.464,-2.336 0,-1.328 0.448,-2.304 0.464,-0.992 1.344,-1.536 0.88,-0.544 2.144,-0.544 1.392,0 2.24,0.608 0.864,0.592 1.264,1.568 0.4,0.976 0.4,2.112 v 0.704 h -5.392 v 0.128 q 0,0.832 0.448,1.328 0.464,0.48 1.408,0.48 0.752,0 1.2,-0.304 0.464,-0.304 0.864,-0.704 l 1.184,1.472 q -0.56,0.64 -1.472,1.024 -0.896,0.368 -2.048,0.368 z m -0.048,-7.04 q -0.48,0 -0.832,0.224 -0.336,0.208 -0.528,0.592 -0.176,0.384 -0.176,0.912 v 0.128 h 2.944 v -0.144 q 0,-0.512 -0.16,-0.896 -0.144,-0.384 -0.464,-0.592 -0.304,-0.224 -0.784,-0.224 z"
       id="path57" />
    <path
       d="m 126.27197,135 h -2.368 v -8.4 h 2.368 v 1.424 h 0.096 q 0.224,-0.656 0.784,-1.136 0.56,-0.48 1.552,-0.48 1.28,0 1.952,0.88 0.672,0.864 0.672,2.448 V 135 h -2.368 v -5.072 q 0,-0.8 -0.256,-1.2 -0.256,-0.4 -0.912,-0.4 -0.384,0 -0.736,0.144 -0.336,0.128 -0.56,0.4 -0.224,0.272 -0.224,0.688 z"
       id="path59" />
    <path
       d="m 138.59195,135 v -1.408 h -0.08 q -0.176,0.688 -0.816,1.152 -0.624,0.448 -1.44,0.448 -1.056,0 -1.776,-0.496 -0.72,-0.512 -1.088,-1.488 -0.368,-0.992 -0.368,-2.416 0,-1.424 0.368,-2.4 0.368,-0.976 1.088,-1.472 0.72,-0.512 1.776,-0.512 0.816,0 1.44,0.448 0.64,0.448 0.816,1.152 h 0.08 v -4.848 h 2.368 V 135 Z m -1.552,-1.728 q 0.448,0 0.8,-0.144 0.352,-0.144 0.544,-0.416 0.208,-0.288 0.208,-0.672 v -2.48 q 0,-0.384 -0.208,-0.656 -0.192,-0.288 -0.544,-0.432 -0.352,-0.144 -0.8,-0.144 -0.672,0 -1.12,0.48 -0.432,0.464 -0.432,1.264 v 1.456 q 0,0.784 0.432,1.264 0.448,0.48 1.12,0.48 z"
       id="path61" />
    <path
       d="m 143.29595,135 v -11.168 h 2.576 l 1.488,2.848 1.248,2.384 h 0.032 l 1.232,-2.384 1.472,-2.848 h 2.592 V 135 h -2.288 v -5.6 -1.728 h -0.048 l -0.816,1.632 -2.176,3.952 -2.128,-3.936 -0.848,-1.76 h -0.048 v 1.84 5.6 z"
       id="path63" />
    <path
       d="m 160.91192,135.192 q -1.504,0 -2.624,-0.64 -1.104,-0.64 -1.712,-1.904 -0.608,-1.264 -0.608,-3.152 0,-1.888 0.608,-3.184 0.608,-1.312 1.712,-1.984 1.12,-0.688 2.624,-0.688 1.536,0 2.544,0.64 1.024,0.64 1.632,1.984 l -2.096,1.088 q -0.208,-0.704 -0.704,-1.12 -0.48,-0.432 -1.376,-0.432 -1.072,0 -1.728,0.704 -0.64,0.688 -0.64,2.016 v 1.792 q 0,1.312 0.64,2.016 0.656,0.704 1.728,0.704 0.896,0 1.424,-0.48 0.544,-0.496 0.8,-1.184 l 1.984,1.152 q -0.624,1.264 -1.648,1.968 -1.024,0.704 -2.56,0.704 z"
       id="path65" />
    <path
       d="m 169.24791,135 h -2.432 v -11.168 h 5.28 q 1.04,0 1.792,0.448 0.768,0.448 1.184,1.264 0.416,0.8 0.416,1.856 0,1.056 -0.416,1.856 -0.416,0.8 -1.184,1.264 -0.752,0.448 -1.792,0.448 h -2.848 z m 0,-9.056 v 2.912 h 2.56 q 0.368,0 0.624,-0.128 0.256,-0.128 0.4,-0.368 0.144,-0.256 0.144,-0.608 v -0.704 q 0,-0.368 -0.144,-0.608 -0.144,-0.24 -0.4,-0.368 -0.256,-0.128 -0.624,-0.128 z"
       id="path67" />
  </g>
  <g
     aria-label="(Browser)"
     id="text13"
     class="label"
     style="font-size:14px;font-family:'IBM Plex Sans', sans-serif, Arial;text-anchor:middle;fill:#555555">
    <path
       d="m 95.299064,180.632 q 0,-1.358 0.336,-2.548 0.336,-1.204 0.91,-2.156 0.574,-0.966 1.288,-1.568 h 1.064 q -0.77,0.7 -1.344,1.652 -0.574,0.952 -0.896,2.002 -0.308,1.05 -0.308,2.03 v 1.204 q 0,0.98 0.322,2.044 0.322,1.05 0.896,2.002 0.574,0.952 1.33,1.624 h -1.064 q -0.686,-0.588 -1.274,-1.54 -0.574,-0.952 -0.924,-2.17 -0.336,-1.218 -0.336,-2.576 z"
       id="path70" />
    <path
       d="m 100.12905,185 v -9.772 h 4.018 q 1.204,0 1.904,0.686 0.7,0.686 0.7,1.834 0,0.728 -0.266,1.162 -0.252,0.434 -0.63,0.644 -0.364,0.21 -0.686,0.266 v 0.084 q 0.266,0.014 0.588,0.154 0.336,0.126 0.63,0.392 0.308,0.266 0.504,0.686 0.196,0.42 0.196,1.036 0,0.798 -0.336,1.442 -0.322,0.644 -0.896,1.022 -0.56,0.364 -1.288,0.364 z m 1.176,-4.536 v 3.5 h 2.898 q 0.504,0 0.868,-0.168 0.364,-0.182 0.56,-0.518 0.196,-0.336 0.196,-0.826 v -0.476 q 0,-0.49 -0.196,-0.826 -0.196,-0.336 -0.56,-0.504 -0.364,-0.182 -0.868,-0.182 z m 0,-4.2 v 3.192 h 2.702 q 0.462,0 0.784,-0.154 0.336,-0.168 0.518,-0.462 0.182,-0.308 0.182,-0.742 v -0.476 q 0,-0.434 -0.182,-0.728 -0.182,-0.308 -0.518,-0.462 -0.322,-0.168 -0.784,-0.168 z"
       id="path72" />
    <path
       d="m 110.27905,185 h -1.12 v -7.224 h 1.12 v 1.33 h 0.07 q 0.126,-0.35 0.392,-0.644 0.266,-0.308 0.686,-0.49 0.42,-0.196 1.008,-0.196 h 0.434 v 1.12 h -0.658 q -0.602,0 -1.036,0.168 -0.434,0.154 -0.672,0.42 -0.224,0.266 -0.224,0.616 z"
       id="path74" />
    <path
       d="m 116.95702,185.168 q -0.966,0 -1.708,-0.462 -0.728,-0.476 -1.148,-1.316 -0.406,-0.854 -0.406,-2.002 0,-1.148 0.406,-1.988 0.42,-0.854 1.148,-1.316 0.742,-0.476 1.708,-0.476 0.966,0 1.694,0.476 0.742,0.462 1.148,1.316 0.42,0.84 0.42,1.988 0,1.148 -0.42,2.002 -0.406,0.84 -1.148,1.316 -0.728,0.462 -1.694,0.462 z m 0,-0.994 q 0.91,0 1.484,-0.56 0.574,-0.56 0.574,-1.708 v -1.036 q 0,-1.148 -0.574,-1.708 -0.574,-0.56 -1.484,-0.56 -0.896,0 -1.484,0.56 -0.574,0.56 -0.574,1.708 v 1.036 q 0,1.148 0.574,1.708 0.588,0.56 1.484,0.56 z"
       id="path76" />
    <path
       d="m 123.17299,185 -1.932,-7.224 h 1.092 l 0.77,3.122 0.77,3.164 h 0.028 l 0.882,-3.164 0.91,-3.122 h 0.994 l 0.938,3.122 0.896,3.164 h 0.028 l 0.742,-3.164 0.784,-3.122 h 1.05 l -1.918,7.224 h -1.386 l -1.008,-3.472 -0.63,-2.198 h -0.028 l -0.616,2.198 -1.008,3.472 z"
       id="path78" />
    <path
       d="m 134.89098,185.168 q -0.994,0 -1.68,-0.378 -0.686,-0.392 -1.176,-1.036 l 0.798,-0.644 q 0.42,0.518 0.938,0.812 0.518,0.294 1.204,0.294 0.714,0 1.106,-0.308 0.406,-0.308 0.406,-0.868 0,-0.42 -0.28,-0.728 -0.266,-0.308 -0.98,-0.406 l -0.574,-0.084 q -0.658,-0.098 -1.19,-0.322 -0.532,-0.238 -0.84,-0.658 -0.294,-0.434 -0.294,-1.106 0,-1.078 0.728,-1.596 0.742,-0.532 1.848,-0.532 0.588,0 1.036,0.14 0.462,0.14 0.826,0.406 0.364,0.252 0.658,0.616 l -0.742,0.672 q -0.238,-0.336 -0.7,-0.602 -0.462,-0.28 -1.162,-0.28 -0.686,0 -1.05,0.308 -0.364,0.294 -0.364,0.812 0,0.518 0.35,0.77 0.364,0.238 1.036,0.35 l 0.56,0.084 q 1.204,0.182 1.708,0.7 0.504,0.504 0.504,1.33 0,0.7 -0.322,1.204 -0.322,0.504 -0.924,0.784 -0.602,0.266 -1.428,0.266 z"
       id="path80" />
    <path
       d="m 142.25497,185.168 q -0.98,0 -1.708,-0.462 -0.728,-0.476 -1.134,-1.316 -0.406,-0.854 -0.406,-2.002 0,-1.148 0.406,-1.988 0.406,-0.854 1.134,-1.316 0.728,-0.476 1.708,-0.476 0.966,0 1.666,0.462 0.7,0.448 1.078,1.246 0.378,0.798 0.378,1.82 v 0.532 h -5.194 v 0.336 q 0,0.938 0.56,1.568 0.574,0.616 1.582,0.616 0.686,0 1.19,-0.322 0.518,-0.322 0.798,-0.924 l 0.798,0.574 q -0.35,0.728 -1.092,1.19 -0.742,0.462 -1.764,0.462 z m 0,-6.622 q -0.602,0 -1.078,0.28 -0.462,0.28 -0.728,0.784 -0.266,0.49 -0.266,1.12 v 0.098 h 3.99 v -0.154 q 0,-0.644 -0.238,-1.12 -0.238,-0.476 -0.672,-0.742 -0.434,-0.266 -1.008,-0.266 z"
       id="path82" />
    <path
       d="m 148.34497,185 h -1.12 v -7.224 h 1.12 v 1.33 h 0.07 q 0.126,-0.35 0.392,-0.644 0.266,-0.308 0.686,-0.49 0.42,-0.196 1.008,-0.196 h 0.434 v 1.12 h -0.658 q -0.602,0 -1.036,0.168 -0.434,0.154 -0.672,0.42 -0.224,0.266 -0.224,0.616 z"
       id="path84" />
    <path
       d="m 154.70095,180.632 q 0,1.358 -0.35,2.576 -0.336,1.218 -0.91,2.17 -0.574,0.952 -1.274,1.54 h -1.064 q 0.756,-0.672 1.33,-1.624 0.574,-0.952 0.896,-2.002 0.322,-1.064 0.322,-2.044 v -1.204 q 0,-0.98 -0.322,-2.03 -0.308,-1.05 -0.882,-2.002 -0.56,-0.952 -1.344,-1.652 h 1.064 q 0.714,0.602 1.288,1.568 0.574,0.952 0.91,2.156 0.336,1.19 0.336,2.548 z"
       id="path86" />
  </g>
  <rect
     x="325"
     y="100"
     width="150"
     height="60"
     class="box"
     id="rect15" />
  <g
     aria-label="Relay Server"
     id="text17"
     class="text"
     style="font-weight:bold;font-size:16px;font-family:'IBM Plex Sans', sans-serif, Arial;text-anchor:middle;fill:#111213">
    <path
       d="M 356.08816,130.904 V 135 h -2.432 v -11.168 h 5.296 q 1.04,0 1.792,0.448 0.752,0.448 1.168,1.248 0.416,0.8 0.416,1.872 0,1.12 -0.512,1.984 -0.496,0.848 -1.52,1.232 l 2.192,4.384 h -2.704 l -1.952,-4.096 z m 0,-2.048 h 2.56 q 0.368,0 0.624,-0.128 0.256,-0.128 0.4,-0.368 0.144,-0.256 0.144,-0.608 v -0.704 q 0,-0.368 -0.144,-0.608 -0.144,-0.24 -0.4,-0.368 -0.256,-0.128 -0.624,-0.128 h -2.56 z"
       id="path89" />
    <path
       d="m 367.57614,135.192 q -1.28,0 -2.192,-0.528 -0.896,-0.544 -1.376,-1.536 -0.464,-0.992 -0.464,-2.336 0,-1.328 0.448,-2.304 0.464,-0.992 1.344,-1.536 0.88,-0.544 2.144,-0.544 1.392,0 2.24,0.608 0.864,0.592 1.264,1.568 0.4,0.976 0.4,2.112 v 0.704 h -5.392 v 0.128 q 0,0.832 0.448,1.328 0.464,0.48 1.408,0.48 0.752,0 1.2,-0.304 0.464,-0.304 0.864,-0.704 l 1.184,1.472 q -0.56,0.64 -1.472,1.024 -0.896,0.368 -2.048,0.368 z m -0.048,-7.04 q -0.48,0 -0.832,0.224 -0.336,0.208 -0.528,0.592 -0.176,0.384 -0.176,0.912 v 0.128 h 2.944 v -0.144 q 0,-0.512 -0.16,-0.896 -0.144,-0.384 -0.464,-0.592 -0.304,-0.224 -0.784,-0.224 z"
       id="path91" />
    <path
       d="m 376.48811,135 h -1.072 q -1.216,0 -1.792,-0.592 -0.56,-0.592 -0.56,-1.712 v -9.536 h 2.368 v 10 h 1.056 z"
       id="path93" />
    <path
       d="m 385.43211,135 h -1.312 q -0.432,0 -0.816,-0.208 -0.368,-0.224 -0.592,-0.64 -0.224,-0.432 -0.224,-1.024 v -0.208 l 0.512,0.608 h -0.576 q -0.192,0.816 -0.848,1.248 -0.656,0.416 -1.616,0.416 -1.264,0 -1.936,-0.672 -0.672,-0.688 -0.672,-1.776 0,-0.896 0.432,-1.472 0.448,-0.576 1.248,-0.864 0.816,-0.288 1.92,-0.288 h 1.328 v -0.528 q 0,-0.608 -0.32,-0.96 -0.32,-0.368 -1.072,-0.368 -0.704,0 -1.12,0.304 -0.416,0.304 -0.688,0.688 l -1.408,-1.248 q 0.512,-0.752 1.296,-1.168 0.784,-0.432 2.096,-0.432 1.776,0 2.672,0.8 0.912,0.784 0.912,2.272 v 3.68 h 0.784 z m -3.152,-3.536 h -1.152 q -0.688,0 -1.04,0.24 -0.352,0.24 -0.352,0.704 v 0.24 q 0,0.448 0.288,0.672 0.288,0.224 0.816,0.224 0.4,0 0.72,-0.112 0.32,-0.112 0.512,-0.352 0.208,-0.24 0.208,-0.624 z"
       id="path95" />
    <path
       d="m 390.77607,130.52 1.232,-3.92 h 2.208 l -3.232,9.696 q -0.208,0.64 -0.544,1.056 -0.32,0.432 -0.816,0.64 -0.496,0.208 -1.216,0.208 h -1.472 v -1.84 h 1.584 l 0.288,-0.928 -2.944,-8.832 h 2.352 l 1.232,3.92 0.608,2.432 h 0.096 z"
       id="path97" />
    <path
       d="m 402.93601,135.192 q -1.456,0 -2.496,-0.512 -1.024,-0.512 -1.744,-1.296 l 1.6,-1.616 q 0.56,0.64 1.264,0.96 0.72,0.32 1.536,0.32 0.896,0 1.328,-0.368 0.432,-0.368 0.432,-0.976 0,-0.304 -0.112,-0.544 -0.096,-0.256 -0.384,-0.416 -0.272,-0.176 -0.8,-0.24 l -1.104,-0.144 q -1.168,-0.16 -1.936,-0.576 -0.752,-0.432 -1.12,-1.12 -0.368,-0.704 -0.368,-1.632 0,-1.008 0.496,-1.76 0.512,-0.768 1.44,-1.2 0.944,-0.432 2.256,-0.432 1.264,0 2.224,0.416 0.96,0.4 1.648,1.152 l -1.616,1.632 q -0.4,-0.464 -0.976,-0.752 -0.56,-0.304 -1.424,-0.304 -0.816,0 -1.216,0.288 -0.4,0.288 -0.4,0.8 0,0.384 0.128,0.624 0.144,0.24 0.432,0.368 0.304,0.128 0.768,0.208 l 1.104,0.176 q 1.152,0.176 1.904,0.592 0.752,0.416 1.12,1.088 0.368,0.672 0.368,1.632 0,1.072 -0.512,1.888 -0.496,0.816 -1.472,1.28 -0.976,0.464 -2.368,0.464 z"
       id="path99" />
    <path
       d="m 412.67999,135.192 q -1.28,0 -2.192,-0.528 -0.896,-0.544 -1.376,-1.536 -0.464,-0.992 -0.464,-2.336 0,-1.328 0.448,-2.304 0.464,-0.992 1.344,-1.536 0.88,-0.544 2.144,-0.544 1.392,0 2.24,0.608 0.864,0.592 1.264,1.568 0.4,0.976 0.4,2.112 v 0.704 h -5.392 v 0.128 q 0,0.832 0.448,1.328 0.464,0.48 1.408,0.48 0.752,0 1.2,-0.304 0.464,-0.304 0.864,-0.704 l 1.184,1.472 q -0.56,0.64 -1.472,1.024 -0.896,0.368 -2.048,0.368 z m -0.048,-7.04 q -0.48,0 -0.832,0.224 -0.336,0.208 -0.528,0.592 -0.176,0.384 -0.176,0.912 v 0.128 h 2.944 v -0.144 q 0,-0.512 -0.16,-0.896 -0.144,-0.384 -0.464,-0.592 -0.304,-0.224 -0.784,-0.224 z"
       id="path101" />
    <path
       d="m 420.53596,135 h -2.368 v -8.4 h 2.368 v 1.824 h 0.08 q 0.096,-0.464 0.352,-0.88 0.256,-0.416 0.688,-0.672 0.448,-0.272 1.104,-0.272 h 0.416 v 2.208 h -0.592 q -0.688,0 -1.152,0.128 -0.448,0.112 -0.672,0.384 -0.224,0.272 -0.224,0.768 z"
       id="path103" />
    <path
       d="m 429.35192,135 h -2.816 l -2.752,-8.4 h 2.336 l 1.04,3.392 0.784,3.04 h 0.128 l 0.784,-3.04 1.008,-3.392 h 2.24 z"
       id="path105" />
    <path
       d="m 436.72787,135.192 q -1.28,0 -2.192,-0.528 -0.896,-0.544 -1.376,-1.536 -0.464,-0.992 -0.464,-2.336 0,-1.328 0.448,-2.304 0.464,-0.992 1.344,-1.536 0.88,-0.544 2.144,-0.544 1.392,0 2.24,0.608 0.864,0.592 1.264,1.568 0.4,0.976 0.4,2.112 v 0.704 h -5.392 v 0.128 q 0,0.832 0.448,1.328 0.464,0.48 1.408,0.48 0.752,0 1.2,-0.304 0.464,-0.304 0.864,-0.704 l 1.184,1.472 q -0.56,0.64 -1.472,1.024 -0.896,0.368 -2.048,0.368 z m -0.048,-7.04 q -0.48,0 -0.832,0.224 -0.336,0.208 -0.528,0.592 -0.176,0.384 -0.176,0.912 v 0.128 h 2.944 v -0.144 q 0,-0.512 -0.16,-0.896 -0.144,-0.384 -0.464,-0.592 -0.304,-0.224 -0.784,-0.224 z"
       id="path107" />
    <path
       d="m 444.58385,135 h -2.368 v -8.4 h 2.368 v 1.824 h 0.08 q 0.096,-0.464 0.352,-0.88 0.256,-0.416 0.688,-0.672 0.448,-0.272 1.104,-0.272 h 0.416 v 2.208 h -0.592 q -0.688,0 -1.152,0.128 -0.448,0.112 -0.672,0.384 -0.224,0.272 -0.224,0.768 z"
       id="path109" />
  </g>
  <g
     aria-label="(HTTP &lt;-&gt; WS)"
     id="text19"
     class="label"
     style="font-size:14px;font-family:'IBM Plex Sans', sans-serif, Arial;text-anchor:middle;fill:#555555">
    <path
       d="m 354.31113,180.632 q 0,-1.358 0.336,-2.548 0.336,-1.204 0.91,-2.156 0.574,-0.966 1.288,-1.568 h 1.064 q -0.77,0.7 -1.344,1.652 -0.574,0.952 -0.896,2.002 -0.308,1.05 -0.308,2.03 v 1.204 q 0,0.98 0.322,2.044 0.322,1.05 0.896,2.002 0.574,0.952 1.33,1.624 h -1.064 q -0.686,-0.588 -1.274,-1.54 -0.574,-0.952 -0.924,-2.17 -0.336,-1.218 -0.336,-2.576 z"
       id="path112" />
    <path
       d="m 365.25912,185 v -4.424 h -4.942 V 185 h -1.176 v -9.772 h 1.176 v 4.312 h 4.942 v -4.312 h 1.176 V 185 Z"
       id="path114" />
    <path
       d="m 375.4371,176.264 h -3.108 V 185 h -1.176 v -8.736 h -3.108 v -1.036 h 7.392 z"
       id="path116" />
    <path
       d="m 383.76706,176.264 h -3.108 V 185 h -1.176 v -8.736 h -3.108 v -1.036 h 7.392 z"
       id="path118" />
    <path
       d="m 386.55304,185 h -1.176 v -9.772 h 3.892 q 0.882,0 1.484,0.35 0.616,0.336 0.924,0.966 0.322,0.616 0.322,1.484 0,0.854 -0.322,1.484 -0.308,0.63 -0.924,0.98 -0.602,0.336 -1.484,0.336 h -2.716 z m 0,-8.736 v 3.528 h 2.716 q 0.462,0 0.784,-0.154 0.336,-0.168 0.504,-0.476 0.182,-0.322 0.182,-0.77 v -0.728 q 0,-0.448 -0.182,-0.756 -0.168,-0.322 -0.504,-0.476 -0.322,-0.168 -0.784,-0.168 z"
       id="path120" />
    <path
       d="m 403.003,185.168 -5.88,-3.486 v -1.12 l 5.88,-3.486 v 1.176 l -4.83,2.814 v 0.112 l 4.83,2.814 z"
       id="path122" />
    <path
       d="m 408.88298,181.346 h -3.654 v -1.204 h 3.654 z"
       id="path124" />
    <path
       d="m 411.10896,185.168 v -1.176 l 4.83,-2.814 v -0.112 l -4.83,-2.814 v -1.176 l 5.88,3.486 v 1.12 z"
       id="path126" />
    <path
       d="m 425.51491,185 h -1.302 l -2.38,-9.772 h 1.246 l 1.05,4.704 0.812,3.654 h 0.028 l 0.91,-3.654 1.232,-4.704 h 1.344 l 1.19,4.704 0.91,3.64 h 0.042 l 0.84,-3.64 1.106,-4.704 h 1.204 l -2.506,9.772 h -1.302 l -1.274,-4.872 -0.896,-3.584 h -0.028 l -0.924,3.584 z"
       id="path128" />
    <path
       d="m 438.07289,185.168 q -1.176,0 -2.03,-0.448 -0.84,-0.462 -1.428,-1.26 l 0.868,-0.728 q 0.518,0.686 1.148,1.05 0.63,0.35 1.484,0.35 1.05,0 1.596,-0.504 0.56,-0.504 0.56,-1.344 0,-0.462 -0.182,-0.784 -0.182,-0.322 -0.588,-0.532 -0.392,-0.224 -1.036,-0.364 l -0.798,-0.182 q -0.882,-0.21 -1.498,-0.546 -0.616,-0.336 -0.938,-0.868 -0.322,-0.532 -0.322,-1.274 0,-0.868 0.406,-1.456 0.406,-0.602 1.134,-0.91 0.742,-0.308 1.694,-0.308 1.106,0 1.89,0.406 0.798,0.406 1.344,1.19 l -0.882,0.644 q -0.392,-0.56 -0.98,-0.882 -0.574,-0.322 -1.428,-0.322 -0.938,0 -1.484,0.406 -0.532,0.406 -0.532,1.19 0,0.462 0.196,0.77 0.21,0.308 0.616,0.518 0.406,0.196 1.022,0.336 l 0.798,0.182 q 0.952,0.21 1.554,0.574 0.602,0.364 0.882,0.896 0.294,0.532 0.294,1.26 0,0.896 -0.406,1.554 -0.406,0.658 -1.162,1.022 -0.742,0.364 -1.792,0.364 z"
       id="path130" />
    <path
       d="m 445.68888,180.632 q 0,1.358 -0.35,2.576 -0.336,1.218 -0.91,2.17 -0.574,0.952 -1.274,1.54 h -1.064 q 0.756,-0.672 1.33,-1.624 0.574,-0.952 0.896,-2.002 0.322,-1.064 0.322,-2.044 v -1.204 q 0,-0.98 -0.322,-2.03 -0.308,-1.05 -0.882,-2.002 -0.56,-0.952 -1.344,-1.652 h 1.064 q 0.714,0.602 1.288,1.568 0.574,0.952 0.91,2.156 0.336,1.19 0.336,2.548 z"
       id="path132" />
  </g>
  <rect
     x="600"
     y="100"
     width="150"
     height="60"
     class="box"
     id="rect21" />
  <g
     aria-label="MCP Client"
     id="text23"
     class="text"
     style="font-weight:bold;font-size:16px;font-family:'IBM Plex Sans', sans-serif, Arial;text-anchor:middle;fill:#111213">
    <path
       d="m 635.08809,135 v -11.168 h 2.576 l 1.488,2.848 1.248,2.384 h 0.032 l 1.232,-2.384 1.472,-2.848 h 2.592 V 135 h -2.288 v -5.6 -1.728 h -0.048 l -0.816,1.632 -2.176,3.952 -2.128,-3.936 -0.848,-1.76 h -0.048 v 1.84 5.6 z"
       id="path135" />
    <path
       d="m 652.70407,135.192 q -1.504,0 -2.624,-0.64 -1.104,-0.64 -1.712,-1.904 -0.608,-1.264 -0.608,-3.152 0,-1.888 0.608,-3.184 0.608,-1.312 1.712,-1.984 1.12,-0.688 2.624,-0.688 1.536,0 2.544,0.64 1.024,0.64 1.632,1.984 l -2.096,1.088 q -0.208,-0.704 -0.704,-1.12 -0.48,-0.432 -1.376,-0.432 -1.072,0 -1.728,0.704 -0.64,0.688 -0.64,2.016 v 1.792 q 0,1.312 0.64,2.016 0.656,0.704 1.728,0.704 0.896,0 1.424,-0.48 0.544,-0.496 0.8,-1.184 l 1.984,1.152 q -0.624,1.264 -1.648,1.968 -1.024,0.704 -2.56,0.704 z"
       id="path137" />
    <path
       d="m 661.04005,135 h -2.432 v -11.168 h 5.28 q 1.04,0 1.792,0.448 0.768,0.448 1.184,1.264 0.416,0.8 0.416,1.856 0,1.056 -0.416,1.856 -0.416,0.8 -1.184,1.264 -0.752,0.448 -1.792,0.448 h -2.848 z m 0,-9.056 v 2.912 h 2.56 q 0.368,0 0.624,-0.128 0.256,-0.128 0.4,-0.368 0.144,-0.256 0.144,-0.608 v -0.704 q 0,-0.368 -0.144,-0.608 -0.144,-0.24 -0.4,-0.368 -0.256,-0.128 -0.624,-0.128 z"
       id="path139" />
    <path
       d="m 677.39199,135.192 q -1.504,0 -2.624,-0.64 -1.104,-0.64 -1.712,-1.904 -0.608,-1.264 -0.608,-3.152 0,-1.888 0.608,-3.184 0.608,-1.312 1.712,-1.984 1.12,-0.688 2.624,-0.688 1.536,0 2.544,0.64 1.024,0.64 1.632,1.984 l -2.096,1.088 q -0.208,-0.704 -0.704,-1.12 -0.48,-0.432 -1.376,-0.432 -1.072,0 -1.728,0.704 -0.64,0.688 -0.64,2.016 v 1.792 q 0,1.312 0.64,2.016 0.656,0.704 1.728,0.704 0.896,0 1.424,-0.48 0.544,-0.496 0.8,-1.184 l 1.984,1.152 q -0.624,1.264 -1.648,1.968 -1.024,0.704 -2.56,0.704 z"
       id="path141" />
    <path
       d="m 686.59198,135 h -1.072 q -1.216,0 -1.792,-0.592 -0.56,-0.592 -0.56,-1.712 v -9.536 h 2.368 v 10 h 1.056 z"
       id="path143" />
    <path
       d="m 689.19997,125.704 q -0.72,0 -1.056,-0.336 -0.32,-0.336 -0.32,-0.832 v -0.352 q 0,-0.512 0.32,-0.832 0.336,-0.336 1.056,-0.336 0.72,0 1.04,0.336 0.336,0.32 0.336,0.832 v 0.352 q 0,0.496 -0.336,0.832 -0.32,0.336 -1.04,0.336 z m -1.184,9.296 v -8.4 h 2.368 v 8.4 z"
       id="path145" />
    <path
       d="m 696.09596,135.192 q -1.28,0 -2.192,-0.528 -0.896,-0.544 -1.376,-1.536 -0.464,-0.992 -0.464,-2.336 0,-1.328 0.448,-2.304 0.464,-0.992 1.344,-1.536 0.88,-0.544 2.144,-0.544 1.392,0 2.24,0.608 0.864,0.592 1.264,1.568 0.4,0.976 0.4,2.112 v 0.704 h -5.392 v 0.128 q 0,0.832 0.448,1.328 0.464,0.48 1.408,0.48 0.752,0 1.2,-0.304 0.464,-0.304 0.864,-0.704 l 1.184,1.472 q -0.56,0.64 -1.472,1.024 -0.896,0.368 -2.048,0.368 z m -0.048,-7.04 q -0.48,0 -0.832,0.224 -0.336,0.208 -0.528,0.592 -0.176,0.384 -0.176,0.912 v 0.128 h 2.944 v -0.144 q 0,-0.512 -0.16,-0.896 -0.144,-0.384 -0.464,-0.592 -0.304,-0.224 -0.784,-0.224 z"
       id="path147" />
    <path
       d="m 703.95193,135 h -2.368 v -8.4 h 2.368 v 1.424 h 0.096 q 0.224,-0.656 0.784,-1.136 0.56,-0.48 1.552,-0.48 1.28,0 1.952,0.88 0.672,0.864 0.672,2.448 V 135 h -2.368 v -5.072 q 0,-0.8 -0.256,-1.2 -0.256,-0.4 -0.912,-0.4 -0.384,0 -0.736,0.144 -0.336,0.128 -0.56,0.4 -0.224,0.272 -0.224,0.688 z"
       id="path149" />
    <path
       d="m 715.47191,135 h -1.408 q -1.216,0 -1.856,-0.624 -0.64,-0.624 -0.64,-1.824 v -4.112 h -1.184 v -1.84 h 0.592 q 0.48,0 0.656,-0.224 0.176,-0.24 0.176,-0.672 v -1.376 h 2.128 v 2.272 h 1.664 v 1.84 h -1.664 v 4.72 h 1.536 z"
       id="path151" />
  </g>
  <g
     aria-label="(Backend / LLM)"
     id="text25"
     class="label"
     style="font-size:14px;font-family:'IBM Plex Sans', sans-serif, Arial;text-anchor:middle;fill:#555555">
    <path
       d="m 625.51011,180.632 q 0,-1.358 0.336,-2.548 0.336,-1.204 0.91,-2.156 0.574,-0.966 1.288,-1.568 h 1.064 q -0.77,0.7 -1.344,1.652 -0.574,0.952 -0.896,2.002 -0.308,1.05 -0.308,2.03 v 1.204 q 0,0.98 0.322,2.044 0.322,1.05 0.896,2.002 0.574,0.952 1.33,1.624 h -1.064 q -0.686,-0.588 -1.274,-1.54 -0.574,-0.952 -0.924,-2.17 -0.336,-1.218 -0.336,-2.576 z"
       id="path154" />
    <path
       d="m 630.34009,185 v -9.772 h 4.018 q 1.204,0 1.904,0.686 0.7,0.686 0.7,1.834 0,0.728 -0.266,1.162 -0.252,0.434 -0.63,0.644 -0.364,0.21 -0.686,0.266 v 0.084 q 0.266,0.014 0.588,0.154 0.336,0.126 0.63,0.392 0.308,0.266 0.504,0.686 0.196,0.42 0.196,1.036 0,0.798 -0.336,1.442 -0.322,0.644 -0.896,1.022 -0.56,0.364 -1.288,0.364 z m 1.176,-4.536 v 3.5 h 2.898 q 0.504,0 0.868,-0.168 0.364,-0.182 0.56,-0.518 0.196,-0.336 0.196,-0.826 v -0.476 q 0,-0.49 -0.196,-0.826 -0.196,-0.336 -0.56,-0.504 -0.364,-0.182 -0.868,-0.182 z m 0,-4.2 v 3.192 h 2.702 q 0.462,0 0.784,-0.154 0.336,-0.168 0.518,-0.462 0.182,-0.308 0.182,-0.742 v -0.476 q 0,-0.434 -0.182,-0.728 -0.182,-0.308 -0.518,-0.462 -0.322,-0.168 -0.784,-0.168 z"
       id="path156" />
    <path
       d="m 645.25009,185 h -0.63 q -0.448,0 -0.728,-0.182 -0.28,-0.196 -0.406,-0.532 -0.126,-0.336 -0.126,-0.77 v -0.098 l 0.434,0.406 h -0.49 q -0.224,0.658 -0.784,1.008 -0.546,0.336 -1.302,0.336 -1.148,0 -1.792,-0.588 -0.63,-0.588 -0.63,-1.596 0,-0.686 0.336,-1.148 0.336,-0.476 1.008,-0.714 0.686,-0.252 1.736,-0.252 h 1.428 v -0.714 q 0,-0.77 -0.42,-1.176 -0.42,-0.406 -1.288,-0.406 -0.644,0 -1.092,0.294 -0.448,0.294 -0.742,0.784 l -0.672,-0.63 q 0.294,-0.574 0.938,-0.994 0.644,-0.42 1.624,-0.42 1.302,0 2.03,0.644 0.742,0.644 0.742,1.792 v 3.976 h 0.826 z m -1.946,-3.29 h -1.484 q -0.952,0 -1.4,0.28 -0.448,0.28 -0.448,0.812 v 0.294 q 0,0.532 0.392,0.826 0.392,0.294 1.036,0.294 0.56,0 0.98,-0.168 0.434,-0.182 0.672,-0.476 0.252,-0.308 0.252,-0.672 z"
       id="path158" />
    <path
       d="m 649.53407,185.168 q -1.526,0 -2.38,-1.022 -0.84,-1.022 -0.84,-2.758 0,-1.736 0.84,-2.758 0.854,-1.022 2.38,-1.022 1.078,0 1.736,0.476 0.658,0.476 0.966,1.218 l -0.938,0.476 q -0.196,-0.56 -0.658,-0.868 -0.448,-0.308 -1.106,-0.308 -0.994,0 -1.512,0.616 -0.504,0.602 -0.504,1.554 v 1.232 q 0,0.938 0.504,1.554 0.518,0.616 1.512,0.616 0.686,0 1.176,-0.322 0.49,-0.322 0.784,-0.938 l 0.812,0.546 q -0.35,0.77 -1.05,1.246 -0.686,0.462 -1.722,0.462 z"
       id="path160" />
    <path
       d="m 653.88805,185 v -10.36 h 1.12 v 5.278 1.288 h 0.056 l 1.106,-1.232 2.044,-2.198 h 1.358 l -2.674,2.856 2.94,4.368 h -1.358 l -2.394,-3.682 -1.078,1.106 V 185 Z"
       id="path162" />
    <path
       d="m 663.74402,185.168 q -0.98,0 -1.708,-0.462 -0.728,-0.476 -1.134,-1.316 -0.406,-0.854 -0.406,-2.002 0,-1.148 0.406,-1.988 0.406,-0.854 1.134,-1.316 0.728,-0.476 1.708,-0.476 0.966,0 1.666,0.462 0.7,0.448 1.078,1.246 0.378,0.798 0.378,1.82 v 0.532 h -5.194 v 0.336 q 0,0.938 0.56,1.568 0.574,0.616 1.582,0.616 0.686,0 1.19,-0.322 0.518,-0.322 0.798,-0.924 l 0.798,0.574 q -0.35,0.728 -1.092,1.19 -0.742,0.462 -1.764,0.462 z m 0,-6.622 q -0.602,0 -1.078,0.28 -0.462,0.28 -0.728,0.784 -0.266,0.49 -0.266,1.12 v 0.098 h 3.99 v -0.154 q 0,-0.644 -0.238,-1.12 -0.238,-0.476 -0.672,-0.742 -0.434,-0.266 -1.008,-0.266 z"
       id="path164" />
    <path
       d="m 669.83402,185 h -1.12 v -7.224 h 1.12 v 1.176 h 0.056 q 0.266,-0.616 0.742,-0.98 0.49,-0.364 1.302,-0.364 1.12,0 1.764,0.728 0.658,0.714 0.658,2.03 V 185 h -1.12 v -4.438 q 0,-0.966 -0.42,-1.456 -0.406,-0.49 -1.218,-0.49 -0.448,0 -0.854,0.154 -0.406,0.14 -0.658,0.448 -0.252,0.308 -0.252,0.77 z"
       id="path166" />
    <path
       d="m 681.28601,185 v -1.176 h -0.056 q -0.322,0.672 -0.854,1.008 -0.518,0.336 -1.26,0.336 -0.896,0 -1.568,-0.462 -0.658,-0.462 -1.022,-1.316 -0.35,-0.854 -0.35,-2.002 0,-1.162 0.35,-2.002 0.364,-0.854 1.022,-1.316 0.672,-0.462 1.568,-0.462 0.742,0 1.288,0.336 0.546,0.322 0.826,1.008 h 0.056 v -4.312 h 1.12 V 185 Z m -1.862,-0.84 q 0.518,0 0.938,-0.168 0.42,-0.182 0.672,-0.504 0.252,-0.336 0.252,-0.798 v -2.688 q 0,-0.406 -0.252,-0.714 -0.252,-0.308 -0.672,-0.49 -0.42,-0.182 -0.938,-0.182 -0.938,0 -1.498,0.602 -0.546,0.588 -0.546,1.554 v 1.232 q 0,0.966 0.546,1.568 0.56,0.588 1.498,0.588 z"
       id="path168" />
    <path
       d="m 688.03398,187.114 h -1.008 l 3.654,-12.474 h 1.008 z"
       id="path170" />
    <path
       d="m 702.20194,185 h -5.334 v -9.772 h 1.176 v 8.736 h 4.158 z"
       id="path172" />
    <path
       d="m 709.21593,185 h -5.334 v -9.772 h 1.176 v 8.736 h 4.158 z"
       id="path174" />
    <path
       d="m 710.89593,185 v -9.772 h 1.568 l 1.848,3.458 0.952,1.806 h 0.07 l 0.966,-1.806 1.848,-3.458 h 1.512 V 185 h -1.148 v -6.594 -1.638 h -0.07 l -0.826,1.638 -2.338,4.256 -2.338,-4.256 -0.826,-1.638 h -0.07 v 1.638 6.594 z"
       id="path176" />
    <path
       d="m 724.48991,180.632 q 0,1.358 -0.35,2.576 -0.336,1.218 -0.91,2.17 -0.574,0.952 -1.274,1.54 h -1.064 q 0.756,-0.672 1.33,-1.624 0.574,-0.952 0.896,-2.002 0.322,-1.064 0.322,-2.044 v -1.204 q 0,-0.98 -0.322,-2.03 -0.308,-1.05 -0.882,-2.002 -0.56,-0.952 -1.344,-1.652 h 1.064 q 0.714,0.602 1.288,1.568 0.574,0.952 0.91,2.156 0.336,1.19 0.336,2.548 z"
       id="path178" />
  </g>
  <!-- Connectors -->
  <!-- HTTP Forward -->
  <line
     x1="590"
     y1="115"
     x2="485"
     y2="115"
     class="line"
     marker-end="url(#arrowhead)"
     id="line27" />
  <g
     aria-label="HTTP POST"
     id="text29"
     class="label"
     style="font-size:14px;font-family:'IBM Plex Sans', sans-serif, Arial;text-anchor:middle;fill:#555555">
    <path
       d="m 508.23009,105 v -4.424 h -4.942 V 105 h -1.176 v -9.772 h 1.176 v 4.312 h 4.942 v -4.312 h 1.176 V 105 Z"
       id="path181" />
    <path
       d="m 518.40808,96.264 h -3.108 V 105 h -1.176 v -8.736 h -3.108 v -1.036 h 7.392 z"
       id="path183" />
    <path
       d="m 526.73804,96.264 h -3.108 V 105 h -1.176 v -8.736 h -3.108 v -1.036 h 7.392 z"
       id="path185" />
    <path
       d="m 529.52402,105 h -1.176 v -9.772 h 3.892 q 0.882,0 1.484,0.35 0.616,0.336 0.924,0.966 0.322,0.616 0.322,1.484 0,0.854 -0.322,1.484 -0.308,0.63 -0.924,0.98 -0.602,0.336 -1.484,0.336 h -2.716 z m 0,-8.736 v 3.528 h 2.716 q 0.462,0 0.784,-0.154 0.336,-0.168 0.504,-0.476 0.182,-0.322 0.182,-0.77 v -0.728 q 0,-0.448 -0.182,-0.756 -0.168,-0.322 -0.504,-0.476 -0.322,-0.168 -0.784,-0.168 z"
       id="path187" />
    <path
       d="m 541.31198,105 h -1.176 v -9.772 h 3.892 q 0.882,0 1.484,0.35 0.616,0.336 0.924,0.966 0.322,0.616 0.322,1.484 0,0.854 -0.322,1.484 -0.308,0.63 -0.924,0.98 -0.602,0.336 -1.484,0.336 h -2.716 z m 0,-8.736 v 3.528 h 2.716 q 0.462,0 0.784,-0.154 0.336,-0.168 0.504,-0.476 0.182,-0.322 0.182,-0.77 v -0.728 q 0,-0.448 -0.182,-0.756 -0.168,-0.322 -0.504,-0.476 -0.322,-0.168 -0.784,-0.168 z"
       id="path189" />
    <path
       d="m 552.27397,105.168 q -1.26,0 -2.198,-0.574 -0.924,-0.588 -1.442,-1.708 -0.504,-1.134 -0.504,-2.772 0,-1.638 0.504,-2.758 0.518,-1.134 1.442,-1.708 0.938,-0.588 2.198,-0.588 1.26,0 2.184,0.588 0.938,0.574 1.442,1.708 0.518,1.12 0.518,2.758 0,1.638 -0.518,2.772 -0.504,1.12 -1.442,1.708 -0.924,0.574 -2.184,0.574 z m 0,-1.05 q 0.854,0 1.498,-0.392 0.644,-0.406 1.008,-1.12 0.378,-0.714 0.378,-1.68 v -1.624 q 0,-0.966 -0.378,-1.68 -0.364,-0.728 -1.008,-1.12 -0.644,-0.392 -1.498,-0.392 -0.84,0 -1.498,0.392 -0.644,0.392 -1.022,1.12 -0.364,0.714 -0.364,1.68 v 1.624 q 0,0.966 0.364,1.68 0.378,0.714 1.022,1.12 0.658,0.392 1.498,0.392 z"
       id="path191" />
    <path
       d="m 561.27594,105.168 q -1.176,0 -2.03,-0.448 -0.84,-0.462 -1.428,-1.26 l 0.868,-0.728 q 0.518,0.686 1.148,1.05 0.63,0.35 1.484,0.35 1.05,0 1.596,-0.504 0.56,-0.504 0.56,-1.344 0,-0.462 -0.182,-0.784 -0.182,-0.322 -0.588,-0.532 -0.392,-0.224 -1.036,-0.364 l -0.798,-0.182 q -0.882,-0.21 -1.498,-0.546 -0.616,-0.336 -0.938,-0.868 -0.322,-0.532 -0.322,-1.274 0,-0.868 0.406,-1.456 0.406,-0.602 1.134,-0.91 0.742,-0.308 1.694,-0.308 1.106,0 1.89,0.406 0.798,0.406 1.344,1.19 l -0.882,0.644 q -0.392,-0.56 -0.98,-0.882 -0.574,-0.322 -1.428,-0.322 -0.938,0 -1.484,0.406 -0.532,0.406 -0.532,1.19 0,0.462 0.196,0.77 0.21,0.308 0.616,0.518 0.406,0.196 1.022,0.336 l 0.798,0.182 q 0.952,0.21 1.554,0.574 0.602,0.364 0.882,0.896 0.294,0.532 0.294,1.26 0,0.896 -0.406,1.554 -0.406,0.658 -1.162,1.022 -0.742,0.364 -1.792,0.364 z"
       id="path193" />
    <path
       d="m 572.88193,96.264 h -3.108 V 105 h -1.176 v -8.736 h -3.108 v -1.036 h 7.392 z"
       id="path195" />
  </g>
  <!-- WS Forward -->
  <line
     x1="315"
     y1="115"
     x2="210"
     y2="115"
     class="line dashed"
     marker-end="url(#arrowhead)"
     id="line31" />
  <g
     aria-label="WS Message"
     id="text33"
     class="label"
     style="font-size:14px;font-family:'IBM Plex Sans', sans-serif, Arial;text-anchor:middle;fill:#555555">
    <path
       d="m 226.46807,105 h -1.302 l -2.38,-9.772 h 1.246 l 1.05,4.704 0.812,3.654 h 0.028 l 0.91,-3.654 1.232,-4.704 h 1.344 l 1.19,4.704 0.91,3.64 h 0.042 l 0.84,-3.64 1.106,-4.704 h 1.204 l -2.506,9.772 h -1.302 l -1.274,-4.872 -0.896,-3.584 h -0.028 l -0.924,3.584 z"
       id="path198" />
    <path
       d="m 239.02605,105.168 q -1.176,0 -2.03,-0.448 -0.84,-0.462 -1.428,-1.26 l 0.868,-0.728 q 0.518,0.686 1.148,1.05 0.63,0.35 1.484,0.35 1.05,0 1.596,-0.504 0.56,-0.504 0.56,-1.344 0,-0.462 -0.182,-0.784 -0.182,-0.322 -0.588,-0.532 -0.392,-0.224 -1.036,-0.364 l -0.798,-0.182 q -0.882,-0.21 -1.498,-0.546 -0.616,-0.336 -0.938,-0.868 -0.322,-0.532 -0.322,-1.274 0,-0.868 0.406,-1.456 0.406,-0.602 1.134,-0.91 0.742,-0.308 1.694,-0.308 1.106,0 1.89,0.406 0.798,0.406 1.344,1.19 l -0.882,0.644 q -0.392,-0.56 -0.98,-0.882 -0.574,-0.322 -1.428,-0.322 -0.938,0 -1.484,0.406 -0.532,0.406 -0.532,1.19 0,0.462 0.196,0.77 0.21,0.308 0.616,0.518 0.406,0.196 1.022,0.336 l 0.798,0.182 q 0.952,0.21 1.554,0.574 0.602,0.364 0.882,0.896 0.294,0.532 0.294,1.26 0,0.896 -0.406,1.554 -0.406,0.658 -1.162,1.022 -0.742,0.364 -1.792,0.364 z"
       id="path200" />
    <path
       d="m 247.72001,105 v -9.772 h 1.568 l 1.848,3.458 0.952,1.806 h 0.07 l 0.966,-1.806 1.848,-3.458 h 1.512 V 105 h -1.148 v -6.594 -1.638 h -0.07 l -0.826,1.638 -2.338,4.256 -2.338,-4.256 -0.826,-1.638 h -0.07 V 98.406 105 Z"
       id="path202" />
    <path
       d="m 261.69199,105.168 q -0.98,0 -1.708,-0.462 -0.728,-0.476 -1.134,-1.316 -0.406,-0.854 -0.406,-2.002 0,-1.148 0.406,-1.988 0.406,-0.854 1.134,-1.316 0.728,-0.476 1.708,-0.476 0.966,0 1.666,0.462 0.7,0.448 1.078,1.246 0.378,0.798 0.378,1.82 v 0.532 h -5.194 v 0.336 q 0,0.938 0.56,1.568 0.574,0.616 1.582,0.616 0.686,0 1.19,-0.322 0.518,-0.322 0.798,-0.924 l 0.798,0.574 q -0.35,0.728 -1.092,1.19 -0.742,0.462 -1.764,0.462 z m 0,-6.622 q -0.602,0 -1.078,0.28 -0.462,0.28 -0.728,0.784 -0.266,0.49 -0.266,1.12 v 0.098 h 3.99 v -0.154 q 0,-0.644 -0.238,-1.12 -0.238,-0.476 -0.672,-0.742 -0.434,-0.266 -1.008,-0.266 z"
       id="path204" />
    <path
       d="m 268.83199,105.168 q -0.994,0 -1.68,-0.378 -0.686,-0.392 -1.176,-1.036 l 0.798,-0.644 q 0.42,0.518 0.938,0.812 0.518,0.294 1.204,0.294 0.714,0 1.106,-0.308 0.406,-0.308 0.406,-0.868 0,-0.42 -0.28,-0.728 -0.266,-0.308 -0.98,-0.406 l -0.574,-0.084 q -0.658,-0.098 -1.19,-0.322 -0.532,-0.238 -0.84,-0.658 -0.294,-0.434 -0.294,-1.106 0,-1.078 0.728,-1.596 0.742,-0.532 1.848,-0.532 0.588,0 1.036,0.14 0.462,0.14 0.826,0.406 0.364,0.252 0.658,0.616 l -0.742,0.672 q -0.238,-0.336 -0.7,-0.602 -0.462,-0.28 -1.162,-0.28 -0.686,0 -1.05,0.308 -0.364,0.294 -0.364,0.812 0,0.518 0.35,0.77 0.364,0.238 1.036,0.35 l 0.56,0.084 q 1.204,0.182 1.708,0.7 0.504,0.504 0.504,1.33 0,0.7 -0.322,1.204 -0.322,0.504 -0.924,0.784 -0.602,0.266 -1.428,0.266 z"
       id="path206" />
    <path
       d="m 275.56597,105.168 q -0.994,0 -1.68,-0.378 -0.686,-0.392 -1.176,-1.036 l 0.798,-0.644 q 0.42,0.518 0.938,0.812 0.518,0.294 1.204,0.294 0.714,0 1.106,-0.308 0.406,-0.308 0.406,-0.868 0,-0.42 -0.28,-0.728 -0.266,-0.308 -0.98,-0.406 l -0.574,-0.084 q -0.658,-0.098 -1.19,-0.322 -0.532,-0.238 -0.84,-0.658 -0.294,-0.434 -0.294,-1.106 0,-1.078 0.728,-1.596 0.742,-0.532 1.848,-0.532 0.588,0 1.036,0.14 0.462,0.14 0.826,0.406 0.364,0.252 0.658,0.616 l -0.742,0.672 q -0.238,-0.336 -0.7,-0.602 -0.462,-0.28 -1.162,-0.28 -0.686,0 -1.05,0.308 -0.364,0.294 -0.364,0.812 0,0.518 0.35,0.77 0.364,0.238 1.036,0.35 l 0.56,0.084 q 1.204,0.182 1.708,0.7 0.504,0.504 0.504,1.33 0,0.7 -0.322,1.204 -0.322,0.504 -0.924,0.784 -0.602,0.266 -1.428,0.266 z"
       id="path208" />
    <path
       d="m 286.09397,105 h -0.63 q -0.448,0 -0.728,-0.182 -0.28,-0.196 -0.406,-0.532 -0.126,-0.336 -0.126,-0.77 v -0.098 l 0.434,0.406 h -0.49 q -0.224,0.658 -0.784,1.008 -0.546,0.336 -1.302,0.336 -1.148,0 -1.792,-0.588 -0.63,-0.588 -0.63,-1.596 0,-0.686 0.336,-1.148 0.336,-0.476 1.008,-0.714 0.686,-0.252 1.736,-0.252 h 1.428 v -0.714 q 0,-0.77 -0.42,-1.176 -0.42,-0.406 -1.288,-0.406 -0.644,0 -1.092,0.294 -0.448,0.294 -0.742,0.784 l -0.672,-0.63 q 0.294,-0.574 0.938,-0.994 0.644,-0.42 1.624,-0.42 1.302,0 2.03,0.644 0.742,0.644 0.742,1.792 v 3.976 h 0.826 z m -1.946,-3.29 h -1.484 q -0.952,0 -1.4,0.28 -0.448,0.28 -0.448,0.812 v 0.294 q 0,0.532 0.392,0.826 0.392,0.294 1.036,0.294 0.56,0 0.98,-0.168 0.434,-0.182 0.672,-0.476 0.252,-0.308 0.252,-0.672 z"
       id="path210" />
    <path
       d="m 293.77995,105.798 q 0,0.742 -0.392,1.218 -0.392,0.49 -1.176,0.714 -0.77,0.238 -1.932,0.238 -1.12,0 -1.834,-0.21 -0.7,-0.21 -1.022,-0.616 -0.322,-0.392 -0.322,-0.952 0,-0.588 0.308,-0.924 0.308,-0.336 0.84,-0.476 v -0.154 q -0.308,-0.154 -0.476,-0.392 -0.168,-0.252 -0.168,-0.616 0,-0.546 0.35,-0.826 0.35,-0.294 0.896,-0.434 v -0.056 q -0.644,-0.308 -1.008,-0.882 -0.35,-0.574 -0.35,-1.33 0,-0.742 0.336,-1.302 0.336,-0.56 0.952,-0.868 0.616,-0.322 1.428,-0.322 0.392,0 0.728,0.07 0.35,0.07 0.644,0.21 v -0.126 q 0,-0.42 0.196,-0.686 0.196,-0.28 0.644,-0.28 h 1.078 v 0.98 h -1.372 v 0.462 q 0.392,0.336 0.602,0.812 0.224,0.476 0.224,1.05 0,0.728 -0.336,1.302 -0.336,0.56 -0.952,0.882 -0.616,0.308 -1.442,0.308 -0.182,0 -0.364,-0.014 -0.182,-0.028 -0.336,-0.056 -0.35,0.098 -0.658,0.294 -0.294,0.182 -0.294,0.518 0,0.322 0.308,0.434 0.308,0.112 0.798,0.112 h 1.54 q 1.344,0 1.946,0.518 0.616,0.504 0.616,1.4 z m -1.05,0.084 q 0,-0.434 -0.336,-0.7 -0.322,-0.252 -1.162,-0.252 h -2.408 q -0.35,0.154 -0.518,0.392 -0.154,0.252 -0.154,0.588 0,0.476 0.35,0.812 0.364,0.336 1.218,0.336 h 1.036 q 0.938,0 1.456,-0.294 0.518,-0.294 0.518,-0.882 z m -2.506,-4.186 q 0.714,0 1.134,-0.336 0.42,-0.35 0.42,-1.064 v -0.392 q 0,-0.714 -0.42,-1.05 -0.42,-0.35 -1.134,-0.35 -0.714,0 -1.134,0.35 -0.42,0.336 -0.42,1.05 v 0.392 q 0,0.714 0.42,1.064 0.42,0.336 1.134,0.336 z"
       id="path212" />
    <path
       d="m 297.71394,105.168 q -0.98,0 -1.708,-0.462 -0.728,-0.476 -1.134,-1.316 -0.406,-0.854 -0.406,-2.002 0,-1.148 0.406,-1.988 0.406,-0.854 1.134,-1.316 0.728,-0.476 1.708,-0.476 0.966,0 1.666,0.462 0.7,0.448 1.078,1.246 0.378,0.798 0.378,1.82 v 0.532 h -5.194 v 0.336 q 0,0.938 0.56,1.568 0.574,0.616 1.582,0.616 0.686,0 1.19,-0.322 0.518,-0.322 0.798,-0.924 l 0.798,0.574 q -0.35,0.728 -1.092,1.19 -0.742,0.462 -1.764,0.462 z m 0,-6.622 q -0.602,0 -1.078,0.28 -0.462,0.28 -0.728,0.784 -0.266,0.49 -0.266,1.12 v 0.098 h 3.99 v -0.154 q 0,-0.644 -0.238,-1.12 -0.238,-0.476 -0.672,-0.742 -0.434,-0.266 -1.008,-0.266 z"
       id="path214" />
  </g>
  <!-- WS Reply -->
  <line
     x1="200"
     y1="145"
     x2="315"
     y2="145"
     class="line dashed"
     marker-end="url(#arrowhead)"
     id="line35" />
  <g
     aria-label="WS Reply"
     id="text37"
     class="label"
     style="font-size:14px;font-family:'IBM Plex Sans', sans-serif, Arial;text-anchor:middle;fill:#555555">
    <path
       d="m 231.40106,165 h -1.302 l -2.38,-9.772 h 1.246 l 1.05,4.704 0.812,3.654 h 0.028 l 0.91,-3.654 1.232,-4.704 h 1.344 l 1.19,4.704 0.91,3.64 h 0.042 l 0.84,-3.64 1.106,-4.704 h 1.204 l -2.506,9.772 h -1.302 l -1.274,-4.872 -0.896,-3.584 h -0.028 l -0.924,3.584 z"
       id="path217" />
    <path
       d="m 243.95904,165.168 q -1.176,0 -2.03,-0.448 -0.84,-0.462 -1.428,-1.26 l 0.868,-0.728 q 0.518,0.686 1.148,1.05 0.63,0.35 1.484,0.35 1.05,0 1.596,-0.504 0.56,-0.504 0.56,-1.344 0,-0.462 -0.182,-0.784 -0.182,-0.322 -0.588,-0.532 -0.392,-0.224 -1.036,-0.364 l -0.798,-0.182 q -0.882,-0.21 -1.498,-0.546 -0.616,-0.336 -0.938,-0.868 -0.322,-0.532 -0.322,-1.274 0,-0.868 0.406,-1.456 0.406,-0.602 1.134,-0.91 0.742,-0.308 1.694,-0.308 1.106,0 1.89,0.406 0.798,0.406 1.344,1.19 l -0.882,0.644 q -0.392,-0.56 -0.98,-0.882 -0.574,-0.322 -1.428,-0.322 -0.938,0 -1.484,0.406 -0.532,0.406 -0.532,1.19 0,0.462 0.196,0.77 0.21,0.308 0.616,0.518 0.406,0.196 1.022,0.336 l 0.798,0.182 q 0.952,0.21 1.554,0.574 0.602,0.364 0.882,0.896 0.294,0.532 0.294,1.26 0,0.896 -0.406,1.554 -0.406,0.658 -1.162,1.022 -0.742,0.364 -1.792,0.364 z"
       id="path219" />
    <path
       d="m 253.82901,160.8 v 4.2 h -1.176 v -9.772 h 3.892 q 0.854,0 1.456,0.322 0.616,0.322 0.938,0.938 0.336,0.616 0.336,1.512 0,1.064 -0.504,1.764 -0.504,0.7 -1.456,0.924 l 2.24,4.312 h -1.33 l -2.114,-4.2 z m 0,-1.008 h 2.716 q 0.462,0 0.784,-0.154 0.336,-0.168 0.504,-0.476 0.182,-0.322 0.182,-0.77 v -0.728 q 0,-0.448 -0.182,-0.756 -0.168,-0.322 -0.504,-0.476 -0.322,-0.168 -0.784,-0.168 h -2.716 z"
       id="path221" />
    <path
       d="m 264.00698,165.168 q -0.98,0 -1.708,-0.462 -0.728,-0.476 -1.134,-1.316 -0.406,-0.854 -0.406,-2.002 0,-1.148 0.406,-1.988 0.406,-0.854 1.134,-1.316 0.728,-0.476 1.708,-0.476 0.966,0 1.666,0.462 0.7,0.448 1.078,1.246 0.378,0.798 0.378,1.82 v 0.532 h -5.194 v 0.336 q 0,0.938 0.56,1.568 0.574,0.616 1.582,0.616 0.686,0 1.19,-0.322 0.518,-0.322 0.798,-0.924 l 0.798,0.574 q -0.35,0.728 -1.092,1.19 -0.742,0.462 -1.764,0.462 z m 0,-6.622 q -0.602,0 -1.078,0.28 -0.462,0.28 -0.728,0.784 -0.266,0.49 -0.266,1.12 v 0.098 h 3.99 v -0.154 q 0,-0.644 -0.238,-1.12 -0.238,-0.476 -0.672,-0.742 -0.434,-0.266 -1.008,-0.266 z"
       id="path223" />
    <path
       d="m 268.97698,167.8 v -10.024 h 1.12 v 1.176 h 0.056 q 0.28,-0.686 0.826,-1.008 0.546,-0.336 1.288,-0.336 0.91,0 1.568,0.462 0.658,0.462 1.008,1.316 0.364,0.84 0.364,2.002 0,1.148 -0.364,2.002 -0.35,0.854 -1.008,1.316 -0.658,0.462 -1.568,0.462 -0.742,0 -1.274,-0.336 -0.518,-0.336 -0.84,-1.008 h -0.056 v 3.976 z m 2.982,-3.64 q 0.952,0 1.498,-0.588 0.546,-0.602 0.546,-1.568 v -1.232 q 0,-0.966 -0.546,-1.554 -0.546,-0.602 -1.498,-0.602 -0.504,0 -0.938,0.182 -0.42,0.182 -0.672,0.49 -0.252,0.308 -0.252,0.714 v 2.688 q 0,0.462 0.252,0.798 0.252,0.322 0.672,0.504 0.434,0.168 0.938,0.168 z"
       id="path225" />
    <path
       d="m 279.28097,165 h -0.994 q -0.574,0 -0.882,-0.322 -0.308,-0.336 -0.308,-0.84 v -9.198 h 1.12 v 9.38 h 1.064 z"
       id="path227" />
    <path
       d="m 283.46696,162.69 1.75,-4.914 h 1.106 l -3.234,8.904 q -0.154,0.434 -0.35,0.672 -0.182,0.252 -0.49,0.35 -0.308,0.098 -0.84,0.098 h -0.574 v -0.98 h 1.134 l 0.546,-1.54 -2.702,-7.504 h 1.12 l 1.736,4.914 0.336,1.176 h 0.07 z"
       id="path229" />
  </g>
  <!-- HTTP Reply -->
  <line
     x1="475"
     y1="145"
     x2="590"
     y2="145"
     class="line"
     marker-end="url(#arrowhead)"
     id="line39" />
  <g
     aria-label="HTTP 200"
     id="text41"
     class="label"
     style="font-size:14px;font-family:'IBM Plex Sans', sans-serif, Arial;text-anchor:middle;fill:#555555">
    <path
       d="m 507.80809,165 v -4.424 h -4.942 V 165 h -1.176 v -9.772 h 1.176 v 4.312 h 4.942 v -4.312 h 1.176 V 165 Z"
       id="path232" />
    <path
       d="m 517.98607,156.264 h -3.108 V 165 h -1.176 v -8.736 h -3.108 v -1.036 h 7.392 z"
       id="path234" />
    <path
       d="m 526.31604,156.264 h -3.108 V 165 h -1.176 v -8.736 h -3.108 v -1.036 h 7.392 z"
       id="path236" />
    <path
       d="m 529.10202,165 h -1.176 v -9.772 h 3.892 q 0.882,0 1.484,0.35 0.616,0.336 0.924,0.966 0.322,0.616 0.322,1.484 0,0.854 -0.322,1.484 -0.308,0.63 -0.924,0.98 -0.602,0.336 -1.484,0.336 h -2.716 z m 0,-8.736 v 3.528 h 2.716 q 0.462,0 0.784,-0.154 0.336,-0.168 0.504,-0.476 0.182,-0.322 0.182,-0.77 v -0.728 q 0,-0.448 -0.182,-0.756 -0.168,-0.322 -0.504,-0.476 -0.322,-0.168 -0.784,-0.168 z"
       id="path238" />
    <path
       d="M 545.87398,163.964 V 165 h -6.412 v -1.204 l 3.192,-2.94 q 0.686,-0.63 1.148,-1.344 0.462,-0.714 0.462,-1.414 v -0.168 q 0,-0.812 -0.448,-1.316 -0.448,-0.504 -1.358,-0.504 -0.896,0 -1.372,0.476 -0.462,0.476 -0.658,1.176 l -1.05,-0.406 q 0.196,-0.574 0.56,-1.092 0.378,-0.532 1.008,-0.868 0.63,-0.336 1.568,-0.336 0.952,0 1.624,0.364 0.672,0.364 1.022,1.008 0.35,0.63 0.35,1.47 0,0.756 -0.28,1.386 -0.266,0.63 -0.756,1.19 -0.476,0.56 -1.106,1.12 l -2.632,2.366 z"
       id="path240" />
    <path
       d="m 551.01195,165.168 q -1.162,0 -1.918,-0.602 -0.742,-0.602 -1.092,-1.722 -0.35,-1.134 -0.35,-2.73 0,-1.596 0.35,-2.73 0.35,-1.134 1.092,-1.722 0.756,-0.602 1.918,-0.602 1.176,0 1.918,0.602 0.742,0.588 1.092,1.722 0.35,1.134 0.35,2.73 0,1.596 -0.35,2.73 -0.35,1.12 -1.092,1.722 -0.742,0.602 -1.918,0.602 z m 0,-1.022 q 0.77,0 1.232,-0.406 0.462,-0.42 0.672,-1.148 0.224,-0.742 0.224,-1.68 v -1.596 q 0,-0.952 -0.224,-1.68 -0.21,-0.728 -0.672,-1.134 -0.462,-0.42 -1.232,-0.42 -0.756,0 -1.232,0.42 -0.462,0.406 -0.686,1.134 -0.21,0.728 -0.21,1.68 v 1.596 q 0,0.938 0.21,1.68 0.224,0.728 0.686,1.148 0.476,0.406 1.232,0.406 z"
       id="path242" />
    <path
       d="m 559.41193,165.168 q -1.162,0 -1.918,-0.602 -0.742,-0.602 -1.092,-1.722 -0.35,-1.134 -0.35,-2.73 0,-1.596 0.35,-2.73 0.35,-1.134 1.092,-1.722 0.756,-0.602 1.918,-0.602 1.176,0 1.918,0.602 0.742,0.588 1.092,1.722 0.35,1.134 0.35,2.73 0,1.596 -0.35,2.73 -0.35,1.12 -1.092,1.722 -0.742,0.602 -1.918,0.602 z m 0,-1.022 q 0.77,0 1.232,-0.406 0.462,-0.42 0.672,-1.148 0.224,-0.742 0.224,-1.68 v -1.596 q 0,-0.952 -0.224,-1.68 -0.21,-0.728 -0.672,-1.134 -0.462,-0.42 -1.232,-0.42 -0.756,0 -1.232,0.42 -0.462,0.406 -0.686,1.134 -0.21,0.728 -0.21,1.68 v 1.596 q 0,0.938 0.21,1.68 0.224,0.728 0.686,1.148 0.476,0.406 1.232,0.406 z"
       id="path244" />
  </g>
</svg>
