<?xml version="1.0" encoding="UTF-8" standalone="no"?>
<svg
   viewBox="0 0 335 100"
   version="1.1"
   id="svg14"
   xmlns="http://www.w3.org/2000/svg"
   xmlns:svg="http://www.w3.org/2000/svg">
  <defs
     id="defs18" />
  <style
     id="style2">
    .logo-text {
      font-family: 'IBM Plex Sans', sans-serif;
      font-size: 36px;
      font-weight: 500;
      letter-spacing: -0.025em;
      fill: #111213;
    }
  </style>
  <g
     id="g10">
    <!-- Original logo shapes -->
    <path
       id="rect4"
       style="fill:#111213"
       d="m 35,20 c 3.878,0 7,3.122 7,7 v 46 c 0,3.878 -3.122,7 -7,7 -3.878,0 -7,-3.122 -7,-7 V 27 c 0,-3.878 3.122,-7 7,-7 z" />
    <path
       id="rect6"
       style="fill:#111213"
       d="m 35,46 h 16 c 3.878,0 7,3.122 7,7 0,3.878 -3.122,7 -7,7 H 35 c -3.878,0 -7,-3.122 -7,-7 0,-3.878 3.122,-7 7,-7 z" />
    <path
       id="circle8"
       style="fill:#f25022"
       d="m 69,27 a 7,7 0 0 1 -7,7 7,7 0 0 1 -7,-7 7,7 0 0 1 7,-7 7,7 0 0 1 7,7 z" />
  </g>
  <!-- Wordmark text mimicking the header style -->
  <g
     aria-label="FrontendMCP"
     id="text12"
     class="logo-text"
     style="font-weight:500;font-size:36px;font-family:'IBM Plex Sans', sans-serif;letter-spacing:-0.025em;fill:#111213">
    <path
       d="M 97.164,65 H 93.096 V 39.872 h 15.696 v 3.6 H 97.164 v 7.02 h 10.332 v 3.6 H 97.164 Z"
       id="path23" />
    <path
       d="m 115.47823,65 h -3.924 V 46.28 h 3.924 v 3.708 h 0.18 q 0.288,-0.936 0.9,-1.764 0.648,-0.864 1.692,-1.404 1.044,-0.54 2.556,-0.54 h 1.044 v 3.78 h -1.548 q -1.548,0 -2.628,0.36 -1.08,0.36 -1.656,1.008 -0.54,0.648 -0.54,1.62 z"
       id="path25" />
    <path
       d="m 131.57017,65.432 q -2.628,0 -4.572,-1.188 -1.908,-1.224 -2.988,-3.42 -1.044,-2.196 -1.044,-5.184 0,-2.988 1.044,-5.184 1.08,-2.196 2.988,-3.384 1.944,-1.224 4.572,-1.224 2.592,0 4.5,1.224 1.944,1.188 2.988,3.384 1.08,2.196 1.08,5.184 0,2.988 -1.08,5.184 -1.044,2.196 -2.988,3.42 -1.908,1.188 -4.5,1.188 z m 0,-3.276 q 2.016,0 3.204,-1.224 1.224,-1.26 1.224,-3.708 v -3.168 q 0,-2.448 -1.224,-3.672 -1.188,-1.26 -3.204,-1.26 -1.98,0 -3.24,1.26 -1.224,1.224 -1.224,3.672 v 3.168 q 0,2.448 1.224,3.708 1.26,1.224 3.24,1.224 z"
       id="path27" />
    <path
       d="m 147.51811,65 h -3.924 V 46.28 h 3.924 v 3.096 h 0.18 q 0.612,-1.512 1.836,-2.52 1.26,-1.008 3.42,-1.008 2.88,0 4.464,1.908 1.62,1.908 1.62,5.364 V 65 h -3.924 V 53.588 q 0,-2.196 -0.864,-3.276 -0.828,-1.116 -2.664,-1.116 -1.044,0 -1.98,0.36 -0.9,0.324 -1.512,1.044 -0.576,0.72 -0.576,1.8 z"
       id="path29" />
    <path
       d="m 172.17811,65 h -3.42 q -2.016,0 -3.096,-1.08 -1.044,-1.116 -1.044,-3.024 V 49.484 h -2.916 V 46.28 h 1.584 q 0.972,0 1.332,-0.432 0.396,-0.432 0.396,-1.404 v -3.276 h 3.528 v 5.112 h 3.924 v 3.204 h -3.924 v 12.312 h 3.636 z"
       id="path31" />
    <path
       d="m 183.05005,65.432 q -2.664,0 -4.608,-1.188 -1.944,-1.224 -3.024,-3.42 -1.044,-2.196 -1.044,-5.184 0,-2.988 1.044,-5.148 1.044,-2.196 2.952,-3.42 1.908,-1.224 4.572,-1.224 2.772,0 4.608,1.26 1.872,1.224 2.808,3.348 0.936,2.124 0.936,4.716 v 1.476 h -12.816 v 0.612 q 0,2.16 1.26,3.564 1.296,1.368 3.672,1.368 1.728,0 2.916,-0.756 1.188,-0.756 1.98,-2.052 l 2.34,2.268 q -1.08,1.692 -3.06,2.736 -1.944,1.044 -4.536,1.044 z m -0.036,-16.524 q -1.368,0 -2.412,0.648 -1.008,0.612 -1.584,1.728 -0.54,1.08 -0.54,2.52 v 0.252 h 8.712 v -0.36 q 0,-1.44 -0.504,-2.52 -0.504,-1.08 -1.44,-1.656 -0.936,-0.612 -2.232,-0.612 z"
       id="path33" />
    <path
       d="m 198.67399,65 h -3.924 V 46.28 h 3.924 v 3.096 h 0.18 q 0.612,-1.512 1.836,-2.52 1.26,-1.008 3.42,-1.008 2.88,0 4.464,1.908 1.62,1.908 1.62,5.364 V 65 h -3.924 V 53.588 q 0,-2.196 -0.864,-3.276 -0.828,-1.116 -2.664,-1.116 -1.044,0 -1.98,0.36 -0.9,0.324 -1.512,1.044 -0.576,0.72 -0.576,1.8 z"
       id="path35" />
    <path
       d="m 226.50198,65 v -3.096 h -0.18 q -0.648,1.656 -2.016,2.592 -1.368,0.936 -3.24,0.936 -2.34,0 -4.032,-1.152 -1.656,-1.188 -2.556,-3.384 -0.864,-2.196 -0.864,-5.256 0,-3.096 0.864,-5.256 0.9,-2.196 2.556,-3.348 1.692,-1.188 4.032,-1.188 1.872,0 3.276,0.936 1.404,0.9 1.98,2.592 h 0.18 V 38.36 h 3.924 V 65 Z m -4.248,-2.88 q 1.188,0 2.124,-0.396 0.972,-0.432 1.548,-1.152 0.576,-0.756 0.576,-1.836 V 52.4 q 0,-0.972 -0.576,-1.692 -0.576,-0.72 -1.548,-1.116 -0.936,-0.396 -2.124,-0.396 -2.016,0 -3.276,1.332 -1.224,1.332 -1.224,3.492 v 3.24 q 0,2.16 1.224,3.528 1.26,1.332 3.276,1.332 z"
       id="path37" />
    <path
       d="M 235.42995,65 V 39.872 h 4.788 l 4.14,7.848 2.628,4.932 h 0.108 l 2.628,-4.932 4.14,-7.848 h 4.716 V 65 h -3.888 V 49.916 45.848 h -0.144 l -2.016,3.96 -5.544,10.08 -5.472,-10.044 -2.052,-4.104 h -0.144 V 49.916 65 Z"
       id="path39" />
    <path
       d="m 273.3019,65.432 q -3.276,0 -5.652,-1.44 -2.376,-1.476 -3.636,-4.32 -1.26,-2.844 -1.26,-7.092 0,-4.212 1.26,-7.128 1.26,-2.952 3.636,-4.464 2.376,-1.548 5.652,-1.548 3.24,0 5.436,1.44 2.232,1.44 3.528,4.248 l -3.42,1.872 q -0.648,-1.8 -2.016,-2.844 -1.332,-1.08 -3.528,-1.08 -2.916,0 -4.572,2.016 -1.656,2.016 -1.656,5.508 v 3.852 q 0,3.456 1.656,5.4 1.656,1.944 4.572,1.944 2.232,0 3.672,-1.152 1.44,-1.188 2.124,-3.024 l 3.276,1.98 q -1.26,2.7 -3.564,4.284 -2.268,1.548 -5.508,1.548 z"
       id="path41" />
    <path
       d="m 289.86186,65 h -4.068 V 39.872 h 10.8 q 2.304,0 3.924,0.936 1.656,0.936 2.52,2.628 0.864,1.692 0.864,3.996 0,2.268 -0.864,3.96 -0.864,1.692 -2.52,2.664 -1.62,0.936 -3.924,0.936 h -6.732 z m 0,-21.564 v 7.992 h 6.48 q 1.008,0 1.728,-0.36 0.756,-0.36 1.152,-1.044 0.396,-0.72 0.396,-1.728 v -1.728 q 0,-1.044 -0.396,-1.728 -0.396,-0.684 -1.152,-1.044 -0.72,-0.36 -1.728,-0.36 z"
       id="path43" />
  </g>
</svg>
